<svg xmlns="http://www.w3.org/2000/svg" width="600" height="600" viewBox="0 0 600 600">
  <!-- Background -->
  <rect width="600" height="600" fill="transparent"/>

  <g stroke="black" stroke-width="1">
    <!-- Row 1 -->
    <rect x="50" y="50" width="50" height="50" fill="#D2B48C"/>
    <rect x="100" y="50" width="50" height="50" fill="#8B4513"/>
    <rect x="150" y="50" width="50" height="50" fill="#D2B48C"/>
    <rect x="200" y="50" width="50" height="50" fill="#8B4513"/>
    <rect x="250" y="50" width="50" height="50" fill="#D2B48C"/>
    <rect x="300" y="50" width="50" height="50" fill="#8B4513"/>
    <rect x="350" y="50" width="50" height="50" fill="#D2B48C"/>
    <rect x="400" y="50" width="50" height="50" fill="#8B4513"/>
    <rect x="450" y="50" width="50" height="50" fill="#D2B48C"/>
    <rect x="500" y="50" width="50" height="50" fill="#8B4513"/>

    <!-- Row 2 -->
    <rect x="50" y="100" width="50" height="50" fill="#8B4513"/>
    <rect x="100" y="100" width="50" height="50" fill="#D2B48C"/>
    <rect x="150" y="100" width="50" height="50" fill="#8B4513"/>
    <rect x="200" y="100" width="50" height="50" fill="#D2B48C"/>
    <rect x="250" y="100" width="50" height="50" fill="#8B4513"/>
    <rect x="300" y="100" width="50" height="50" fill="#D2B48C"/>
    <rect x="350" y="100" width="50" height="50" fill="#8B4513"/>
    <rect x="400" y="100" width="50" height="50" fill="#D2B48C"/>
    <rect x="450" y="100" width="50" height="50" fill="#8B4513"/>
    <rect x="500" y="100" width="50" height="50" fill="#D2B48C"/>

    <!-- Row 3 -->
    <rect x="50" y="150" width="50" height="50" fill="#D2B48C"/>
    <rect x="100" y="150" width="50" height="50" fill="#8B4513"/>
    <rect x="150" y="150" width="50" height="50" fill="#D2B48C"/>
    <rect x="200" y="150" width="50" height="50" fill="#8B4513"/>
    <rect x="250" y="150" width="50" height="50" fill="#D2B48C"/>
    <rect x="300" y="150" width="50" height="50" fill="#8B4513"/>
    <rect x="350" y="150" width="50" height="50" fill="#D2B48C"/>
    <rect x="400" y="150" width="50" height="50" fill="#8B4513"/>
    <rect x="450" y="150" width="50" height="50" fill="#D2B48C"/>
    <rect x="500" y="150" width="50" height="50" fill="#8B4513"/>

    <!-- Row 4 -->
    <rect x="50" y="200" width="50" height="50" fill="#8B4513"/>
    <rect x="100" y="200" width="50" height="50" fill="#D2B48C"/>
    <rect x="150" y="200" width="50" height="50" fill="#8B4513"/>
    <rect x="200" y="200" width="50" height="50" fill="#D2B48C"/>
    <rect x="250" y="200" width="50" height="50" fill="#8B4513"/>
    <rect x="300" y="200" width="50" height="50" fill="#D2B48C"/>
    <rect x="350" y="200" width="50" height="50" fill="#8B4513"/>
    <rect x="400" y="200" width="50" height="50" fill="#D2B48C"/>
    <rect x="450" y="200" width="50" height="50" fill="#8B4513"/>
    <rect x="500" y="200" width="50" height="50" fill="#D2B48C"/>

    <!-- Row 5 -->
    <rect x="50" y="250" width="50" height="50" fill="#D2B48C"/>
    <rect x="100" y="250" width="50" height="50" fill="#8B4513"/>
    <rect x="150" y="250" width="50" height="50" fill="#D2B48C"/>
    <rect x="200" y="250" width="50" height="50" fill="#8B4513"/>
    <rect x="250" y="250" width="50" height="50" fill="#D2B48C"/>
    <rect x="300" y="250" width="50" height="50" fill="#8B4513"/>
    <rect x="350" y="250" width="50" height="50" fill="#D2B48C"/>
    <rect x="400" y="250" width="50" height="50" fill="#8B4513"/>
    <rect x="450" y="250" width="50" height="50" fill="#D2B48C"/>
    <rect x="500" y="250" width="50" height="50" fill="#8B4513"/>

    <!-- Row 6 -->
    <rect x="50" y="300" width="50" height="50" fill="#8B4513"/>
    <rect x="100" y="300" width="50" height="50" fill="#D2B48C"/>
    <rect x="150" y="300" width="50" height="50" fill="#8B4513"/>
    <rect x="200" y="300" width="50" height="50" fill="#D2B48C"/>
    <rect x="250" y="300" width="50" height="50" fill="#8B4513"/>
    <rect x="300" y="300" width="50" height="50" fill="#D2B48C"/>
    <rect x="350" y="300" width="50" height="50" fill="#8B4513"/>
    <rect x="400" y="300" width="50" height="50" fill="#D2B48C"/>
    <rect x="450" y="300" width="50" height="50" fill="#8B4513"/>
    <rect x="500" y="300" width="50" height="50" fill="#D2B48C"/>

    <!-- Row 7 -->
    <rect x="50" y="350" width="50" height="50" fill="#D2B48C"/>
    <rect x="100" y="350" width="50" height="50" fill="#8B4513"/>
    <rect x="150" y="350" width="50" height="50" fill="#D2B48C"/>
    <rect x="200" y="350" width="50" height="50" fill="#8B4513"/>
    <rect x="250" y="350" width="50" height="50" fill="#D2B48C"/>
    <rect x="300" y="350" width="50" height="50" fill="#8B4513"/>
    <rect x="350" y="350" width="50" height="50" fill="#D2B48C"/>
    <rect x="400" y="350" width="50" height="50" fill="#8B4513"/>
    <rect x="450" y="350" width="50" height="50" fill="#D2B48C"/>
    <rect x="500" y="350" width="50" height="50" fill="#8B4513"/>

    <!-- Row 8 -->
    <rect x="50" y="400" width="50" height="50" fill="#8B4513"/>
    <rect x="100" y="400" width="50" height="50" fill="#D2B48C"/>
    <rect x="150" y="400" width="50" height="50" fill="#8B4513"/>
    <rect x="200" y="400" width="50" height="50" fill="#D2B48C"/>
    <rect x="250" y="400" width="50" height="50" fill="#8B4513"/>
    <rect x="300" y="400" width="50" height="50" fill="#D2B48C"/>
    <rect x="350" y="400" width="50" height="50" fill="#8B4513"/>
    <rect x="400" y="400" width="50" height="50" fill="#D2B48C"/>
    <rect x="450" y="400" width="50" height="50" fill="#8B4513"/>
    <rect x="500" y="400" width="50" height="50" fill="#D2B48C"/>

    <!-- Row 9 -->
    <rect x="50" y="450" width="50" height="50" fill="#D2B48C"/>
    <rect x="100" y="450" width="50" height="50" fill="#8B4513"/>
    <rect x="150" y="450" width="50" height="50" fill="#D2B48C"/>
    <rect x="200" y="450" width="50" height="50" fill="#8B4513"/>
    <rect x="250" y="450" width="50" height="50" fill="#D2B48C"/>
    <rect x="300" y="450" width="50" height="50" fill="#8B4513"/>
    <rect x="350" y="450" width="50" height="50" fill="#D2B48C"/>
    <rect x="400" y="450" width="50" height="50" fill="#8B4513"/>
    <rect x="450" y="450" width="50" height="50" fill="#D2B48C"/>
    <rect x="500" y="450" width="50" height="50" fill="#8B4513"/>

    <!-- Row 10-->
    <rect x="50" y="500" width="50" height="50" fill="#8B4513"/>
    <rect x="100" y="500" width="50" height="50" fill="#D2B48C"/>
    <rect x="150" y="500" width="50" height="50" fill="#8B4513"/>
    <rect x="200" y="500" width="50" height="50" fill="#D2B48C"/>
    <rect x="250" y="500" width="50" height="50" fill="#8B4513"/>
    <rect x="300" y="500" width="50" height="50" fill="#D2B48C"/>
    <rect x="350" y="500" width="50" height="50" fill="#8B4513"/>
    <rect x="400" y="500" width="50" height="50" fill="#D2B48C"/>
    <rect x="450" y="500" width="50" height="50" fill="#8B4513"/>
    <rect x="500" y="500" width="50" height="50" fill="#D2B48C"/>
  </g>
</svg>